<?xml version="1.0" encoding="UTF-8"?>
<svg xmlns="http://www.w3.org/2000/svg" viewBox="0 0 1200 620" role="img" aria-labelledby="t d" font-family="Inter, system-ui, sans-serif">
  <title id="t">4orm Living System Map, static reference</title>
  <desc id="d">A three-layer map. Layer 1 (Domestic Payments) shows on-us, interbank via 4orm forward and reverse, legacy correspondent, and international bridge pipelines. Layer 2 (Atomic Settlement) shows token mint, DvP match engine with treasury, custody, and canonical-ledger finality. Layer 3 (Network Services) shows KYC reuse hub, supervisory node (read-only, aggregate), attestation registry, and the canonical token registry as the Canadian-anchored ledger of record.</desc>

  <defs>
    <marker id="a" viewBox="0 0 10 10" refX="9" refY="5" markerWidth="6" markerHeight="6" orient="auto"><path d="M0,0 L10,5 L0,10 z" fill="#4A5468"/></marker>
    <marker id="ag" viewBox="0 0 10 10" refX="9" refY="5" markerWidth="6" markerHeight="6" orient="auto"><path d="M0,0 L10,5 L0,10 z" fill="#B8612B"/></marker>
    <marker id="ad" viewBox="0 0 10 10" refX="9" refY="5" markerWidth="6" markerHeight="6" orient="auto"><path d="M0,0 L10,5 L0,10 z" fill="#2D4A6B"/></marker>
  </defs>

  <rect x="0" y="0" width="1200" height="270" fill="#FAF8F4"/>
  <rect x="0" y="270" width="1200" height="190" fill="#F3EFE7"/>
  <rect x="0" y="460" width="1200" height="160" fill="#EDE8DC"/>

  <text x="20" y="22" font-size="11" font-weight="600" fill="#4A5468" letter-spacing="0.8">LAYER 1   DOMESTIC PAYMENTS</text>
  <text x="20" y="292" font-size="11" font-weight="600" fill="#4A5468" letter-spacing="0.8">LAYER 2   ATOMIC SETTLEMENT</text>
  <text x="20" y="482" font-size="11" font-weight="600" fill="#4A5468" letter-spacing="0.8">LAYER 3   NETWORK SERVICES</text>

  <path d="M 150 165 L 150 510" stroke="#B4B2A9" stroke-width="0.8" stroke-dasharray="2 4" opacity="0.45" fill="none"/>
  <path d="M 800 165 L 770 510" stroke="#B4B2A9" stroke-width="0.8" stroke-dasharray="2 4" opacity="0.45" fill="none"/>
  <path d="M 720 130 L 1020 510" stroke="#B4B2A9" stroke-width="0.8" stroke-dasharray="2 4" opacity="0.45" fill="none"/>
  <path d="M 600 425 L 600 460 L 530 500" stroke="#B8612B" stroke-width="1.6" fill="none" marker-end="url(#ag)" opacity="0.9"/>
  <text x="610" y="445" font-size="9" font-weight="500" fill="#B8612B" font-style="italic">Read-only, aggregate only, no customer detail</text>

  <rect x="80" y="490" width="160" height="46" rx="8" fill="#FFFFFF" stroke="#D9E0EA"/>
  <text x="160" y="510" font-size="12" font-weight="600" fill="#4A5468" text-anchor="middle">KYC reuse hub</text>
  <text x="160" y="525" font-size="9" font-weight="400" fill="#8A8579" text-anchor="middle">partner of record, TBD</text>

  <rect x="460" y="490" width="160" height="46" rx="8" fill="#FFFFFF" stroke="#D9E0EA"/>
  <text x="540" y="510" font-size="12" font-weight="600" fill="#4A5468" text-anchor="middle">Supervisory node</text>
  <text x="540" y="525" font-size="9" font-weight="400" fill="#8A8579" text-anchor="middle">OSFI, FINTRAC, FSRA</text>

  <rect x="700" y="490" width="160" height="46" rx="8" fill="#FFFFFF" stroke="#D9E0EA"/>
  <text x="780" y="510" font-size="12" font-weight="600" fill="#4A5468" text-anchor="middle">Attestation registry</text>
  <text x="780" y="525" font-size="9" font-weight="400" fill="#8A8579" text-anchor="middle">read-only</text>

  <rect x="940" y="490" width="180" height="46" rx="8" fill="#FFFFFF" stroke="#B8612B" stroke-width="1.4"/>
  <text x="1030" y="510" font-size="12" font-weight="600" fill="#1A2332" text-anchor="middle">Canonical token registry</text>
  <text x="1030" y="525" font-size="9" font-weight="400" fill="#B8612B" text-anchor="middle">the ledger of record, Canadian-anchored</text>

  <path d="M 200 340 L 380 340 L 580 360" stroke="#2D4A6B" stroke-width="1.5" fill="none" opacity="0.7" marker-end="url(#ad)"/>
  <path d="M 1000 340 L 820 340 L 620 360" stroke="#B8612B" stroke-width="1.5" fill="none" opacity="0.7" marker-end="url(#ag)"/>
  <path d="M 600 360 L 540 305" stroke="#2F7A5C" stroke-width="1" opacity="0.4" fill="none"/>
  <path d="M 600 360 L 660 305" stroke="#2F7A5C" stroke-width="1" opacity="0.4" fill="none"/>
  <path d="M 600 380 L 600 425" stroke="#2F7A5C" stroke-width="1" opacity="0.4" fill="none"/>

  <rect x="120" y="315" width="100" height="50" rx="8" fill="#FFFFFF" stroke="#E5E1D9"/>
  <text x="170" y="338" font-size="12" font-weight="600" fill="#1A2332" text-anchor="middle">Token mint</text>
  <text x="170" y="354" font-size="10" font-weight="400" fill="#8A8579" text-anchor="middle">cash leg</text>

  <rect x="980" y="315" width="100" height="50" rx="8" fill="#FFFFFF" stroke="#E5E1D9"/>
  <text x="1030" y="338" font-size="12" font-weight="600" fill="#1A2332" text-anchor="middle">Token mint</text>
  <text x="1030" y="354" font-size="10" font-weight="400" fill="#8A8579" text-anchor="middle">asset leg</text>

  <circle cx="530" cy="295" r="14" fill="#FFFFFF" stroke="#2F7A5C" stroke-width="1.4"/>
  <text x="530" y="299" font-size="11" font-weight="700" fill="#2F7A5C" text-anchor="middle">&#10003;</text>
  <text x="530" y="278" font-size="9" font-weight="600" fill="#4A5468" text-anchor="middle">Treasury</text>

  <circle cx="670" cy="295" r="14" fill="#FFFFFF" stroke="#2F7A5C" stroke-width="1.4"/>
  <text x="670" y="299" font-size="11" font-weight="700" fill="#2F7A5C" text-anchor="middle">&#10003;</text>
  <text x="670" y="278" font-size="9" font-weight="600" fill="#4A5468" text-anchor="middle">Custody</text>

  <circle cx="600" cy="435" r="14" fill="#FFFFFF" stroke="#2F7A5C" stroke-width="1.4"/>
  <text x="600" y="439" font-size="11" font-weight="700" fill="#2F7A5C" text-anchor="middle">&#10003;</text>
  <text x="600" y="425" font-size="9" font-weight="600" fill="#4A5468" text-anchor="middle">Canonical ledger</text>

  <circle cx="600" cy="365" r="42" fill="#FFFFFF" stroke="#2F7A5C" stroke-width="1.8"/>
  <text x="600" y="362" font-size="12" font-weight="600" fill="#1A2332" text-anchor="middle">DvP match</text>
  <text x="600" y="377" font-size="10" font-weight="500" fill="#2F7A5C" text-anchor="middle">T+0 atomic</text>
  <text x="600" y="492" font-size="9" font-weight="400" fill="#8A8579" text-anchor="middle" font-style="italic">Settlement finality requires all three. Blockchain confirmation alone does not represent institutional finality.</text>

  <path d="M 75 195 Q 250 260 490 230 Q 730 200 880 195" stroke="#C18A1A" stroke-width="1.4" stroke-dasharray="3 4" fill="none" opacity="0.6" marker-end="url(#a)"/>
  <text x="490" y="252" font-size="10" font-weight="500" fill="#C18A1A" text-anchor="middle" font-style="italic">legacy correspondent route, replaced by 4orm</text>

  <path d="M 75 90 L 165 90 L 260 120 L 720 120 L 785 90 L 880 90" stroke="#B8612B" stroke-width="1.6" fill="none" opacity="0.85" marker-end="url(#ag)"/>
  <path d="M 880 145 L 785 145 L 720 130 L 260 130 L 165 145 L 75 145" stroke="#B8612B" stroke-width="1.4" stroke-dasharray="5 3" fill="none" opacity="0.7" marker-end="url(#ag)"/>
  <path d="M 165 115 L 165 165 L 130 165 L 130 115 L 165 115" stroke="#2D4A6B" stroke-width="1.5" fill="none" opacity="0.9"/>
  <path d="M 785 115 L 785 165 L 820 165 L 820 115 L 785 115" stroke="#2D4A6B" stroke-width="1.5" fill="none" opacity="0.9"/>
  <path d="M 720 100 L 850 100 L 980 100 L 1085 100" stroke="#D4A24C" stroke-width="1.6" stroke-dasharray="1 3" fill="none" opacity="0.85" marker-end="url(#ag)"/>

  <rect x="30" y="80" width="90" height="65" rx="8" fill="#FFFFFF" stroke="#E5E1D9"/>
  <text x="75" y="108" font-size="12" font-weight="600" fill="#1A2332" text-anchor="middle">Customer A</text>
  <text x="75" y="123" font-size="10" font-weight="400" fill="#8A8579" text-anchor="middle">sender</text>

  <rect x="120" y="80" width="80" height="65" rx="8" fill="#FFFFFF" stroke="#2D4A6B" stroke-width="1.4"/>
  <text x="160" y="108" font-size="12" font-weight="600" fill="#1A2332" text-anchor="middle">Bank A</text>
  <text x="160" y="123" font-size="10" font-weight="400" fill="#8A8579" text-anchor="middle">issuer</text>

  <rect x="120" y="160" width="80" height="32" rx="6" fill="#F7F4ED" stroke="#E5E1D9"/>
  <text x="160" y="180" font-size="10" font-weight="600" fill="#4A5468" text-anchor="middle">Internal ledger</text>

  <rect x="260" y="105" width="460" height="40" rx="8" fill="#13243A"/>
  <text x="490" y="129" font-size="13" font-weight="600" fill="#FAF8F4" text-anchor="middle">4orm rail, regulated CAD asset, neutral shared infrastructure</text>

  <rect x="750" y="80" width="80" height="65" rx="8" fill="#FFFFFF" stroke="#2D4A6B" stroke-width="1.4"/>
  <text x="790" y="108" font-size="12" font-weight="600" fill="#1A2332" text-anchor="middle">Bank B</text>
  <text x="790" y="123" font-size="10" font-weight="400" fill="#8A8579" text-anchor="middle">issuer</text>

  <rect x="750" y="160" width="80" height="32" rx="6" fill="#F7F4ED" stroke="#E5E1D9"/>
  <text x="790" y="180" font-size="10" font-weight="600" fill="#4A5468" text-anchor="middle">Internal ledger</text>

  <rect x="830" y="80" width="90" height="65" rx="8" fill="#FFFFFF" stroke="#E5E1D9"/>
  <text x="875" y="108" font-size="12" font-weight="600" fill="#1A2332" text-anchor="middle">Customer B</text>
  <text x="875" y="123" font-size="10" font-weight="400" fill="#8A8579" text-anchor="middle">receiver</text>

  <rect x="1000" y="80" width="170" height="65" rx="8" fill="#FFFFFF" stroke="#D4A24C" stroke-width="1.6" stroke-dasharray="3 2"/>
  <text x="1085" y="105" font-size="12" font-weight="600" fill="#1A2332" text-anchor="middle">International gateway</text>
  <text x="1085" y="120" font-size="9" font-weight="500" fill="#B8612B" text-anchor="middle">Bounded interoperability</text>
  <text x="1085" y="133" font-size="9" font-weight="500" fill="#B8612B" text-anchor="middle">Layer-Zero bridge, roadmap</text>
  <text x="1085" y="160" font-size="9" font-weight="400" fill="#8A8579" text-anchor="middle" font-style="italic">Activates when destination chain opens its interface.</text>

  <g transform="translate(840, 20)">
    <circle cx="6" cy="6" r="3" fill="#2D4A6B"/><text x="14" y="9" font-size="9" fill="#4A5468">on-us</text>
    <circle cx="62" cy="6" r="3" fill="#B8612B"/><text x="70" y="9" font-size="9" fill="#4A5468">interbank via 4orm</text>
    <circle cx="172" cy="6" r="2.5" fill="#C18A1A" opacity="0.7"/><text x="180" y="9" font-size="9" fill="#4A5468">legacy</text>
    <circle cx="220" cy="6" r="3" fill="#D4A24C"/><text x="228" y="9" font-size="9" fill="#4A5468">international</text>
    <circle cx="298" cy="6" r="3" fill="#2F7A5C"/><text x="306" y="9" font-size="9" fill="#4A5468">settled</text>
  </g>

  <text x="600" y="610" font-size="9" font-weight="400" fill="#8A8579" text-anchor="middle">4orm Finance, KCS Capital, 2026-05-25, static reference</text>
</svg>
